<?xml version="1.0" standalone="no"?>
<!DOCTYPE svg PUBLIC "-//W3C//DTD SVG 20010904//EN"
 "http://www.w3.org/TR/2001/REC-SVG-20010904/DTD/svg10.dtd">
<svg version="1.0" xmlns="http://www.w3.org/2000/svg"
 width="582.000000pt" height="358.000000pt" viewBox="0 0 582.000000 358.000000"
 preserveAspectRatio="xMidYMid meet">

<g transform="translate(0.000000,358.000000) scale(0.100000,-0.100000)"
fill="#000000" stroke="none">
<path d="M4682 2555 c8 -11 23 -33 32 -50 15 -26 16 -27 10 -5 -3 14 -18 36
-32 50 -14 14 -19 16 -10 5z"/>
<path d="M4560 2480 c-6 -23 -9 -47 -7 -53 2 -6 9 10 16 37 6 27 10 51 7 53
-3 3 -10 -14 -16 -37z"/>
<path d="M4353 2485 c15 -15 27 -32 27 -38 0 -6 3 -8 6 -5 9 10 -15 47 -39 59
-19 10 -18 8 6 -16z"/>
<path d="M4216 2404 c-4 -9 -9 -51 -11 -93 l-4 -76 13 90 c13 92 14 109 2 79z"/>
<path d="M4742 2390 c0 -14 2 -19 5 -12 2 6 2 18 0 25 -3 6 -5 1 -5 -13z"/>
<path d="M4542 2370 c0 -19 2 -27 5 -17 2 9 2 25 0 35 -3 9 -5 1 -5 -18z"/>
<path d="M4407 2318 c6 -73 11 -83 12 -23 0 28 -3 56 -8 63 -5 8 -6 -8 -4 -40z"/>
<path d="M4541 2254 c0 -11 3 -14 6 -6 3 7 2 16 -1 19 -3 4 -6 -2 -5 -13z"/>
<path d="M4742 2250 c0 -14 2 -19 5 -12 2 6 2 18 0 25 -3 6 -5 1 -5 -13z"/>
<path d="M4345 2223 c-11 -3 -24 -9 -29 -14 -10 -9 -29 -503 -26 -714 l1 -140
51 -103 c28 -56 55 -105 61 -109 7 -4 7 76 1 248 -4 140 -9 386 -9 547 0 314
3 298 -50 285z"/>
<path d="M693 1996 c-17 -8 -44 -34 -59 -58 -25 -40 -27 -51 -28 -148 0 -110
9 -140 53 -187 44 -47 148 -39 188 15 28 38 34 85 11 90 -12 2 -18 -3 -18 -15
0 -10 -9 -33 -20 -50 -18 -30 -24 -33 -69 -33 -81 0 -111 50 -111 180 1 120
36 180 106 180 49 0 79 -24 89 -71 5 -20 13 -29 26 -29 16 0 18 5 13 28 -21
88 -103 133 -181 98z"/>
<path d="M1780 2008 c0 -2 9 -48 20 -103 64 -338 64 -335 81 -335 18 0 19 5
64 195 34 141 35 145 44 145 10 0 81 -295 81 -337 0 -2 9 -3 19 -3 23 0 25 6
45 120 8 47 22 117 30 155 8 39 18 92 22 118 6 44 5 49 -12 45 -15 -3 -21 -19
-31 -93 -7 -50 -17 -103 -22 -120 -5 -16 -13 -54 -16 -82 -7 -58 -21 -69 -30
-25 -4 15 -12 52 -20 82 -8 30 -21 93 -29 138 -18 93 -21 102 -41 102 -9 0
-18 -21 -25 -57 -27 -135 -66 -283 -75 -285 -5 -2 -11 11 -13 27 -2 17 -11 71
-22 120 -10 50 -21 114 -25 143 -6 42 -10 52 -26 52 -10 0 -19 -1 -19 -2z"/>
<path d="M1490 1925 c0 -29 -4 -36 -25 -41 -31 -8 -32 -16 -2 -29 21 -9 22
-17 27 -138 5 -136 10 -147 58 -147 15 0 22 6 22 20 0 13 -7 20 -19 20 -27 0
-31 18 -31 136 0 102 0 104 25 110 31 8 32 22 3 26 -19 2 -24 10 -26 41 -4 50
-32 52 -32 2z"/>
<path d="M1017 1881 c-28 -18 -56 -50 -57 -63 0 -18 34 -6 52 17 14 18 29 25
53 25 39 0 56 -18 58 -62 2 -32 1 -32 -53 -40 -74 -11 -110 -45 -110 -104 0
-34 5 -47 26 -63 34 -27 74 -27 108 0 l27 21 6 -21 c3 -11 13 -21 22 -21 14 0
16 15 13 122 -3 155 -6 164 -45 188 -39 24 -63 24 -100 1z m111 -191 c4 -49
-26 -80 -78 -80 -62 0 -80 51 -35 96 20 20 33 25 68 22 40 -3 42 -5 45 -38z"/>
<path d="M1331 1878 c-16 -16 -25 -19 -28 -10 -3 6 -13 12 -24 12 -18 0 -19
-9 -19 -155 0 -148 1 -155 20 -155 19 0 20 7 20 124 l0 125 29 20 c16 12 34
21 40 21 6 0 11 9 11 20 0 26 -20 25 -49 -2z"/>
<path d="M2320 1884 c-27 -14 -60 -50 -60 -65 0 -18 33 -8 52 16 14 18 29 25
53 25 39 0 56 -18 58 -62 2 -32 1 -32 -53 -40 -74 -11 -110 -45 -110 -104 0
-34 5 -47 26 -63 34 -27 74 -27 108 0 l27 21 6 -21 c3 -11 13 -21 22 -21 14 0
16 15 13 122 -3 155 -6 164 -45 188 -37 23 -61 24 -97 4z m106 -178 c13 -55
-20 -96 -76 -96 -41 0 -60 18 -60 59 0 30 46 61 91 61 33 0 40 -4 45 -24z"/>
<path d="M2878 1885 c-47 -26 -68 -74 -68 -155 0 -92 23 -134 81 -151 45 -14
116 1 126 27 8 21 -4 29 -22 14 -9 -7 -37 -13 -62 -13 -36 0 -49 4 -63 24 -18
23 -31 75 -22 84 3 3 45 5 94 5 l88 0 -1 43 c-2 65 -12 90 -48 114 -39 26 -65
28 -103 8z m95 -42 c8 -10 17 -31 19 -48 l3 -30 -72 -3 -73 -3 0 27 c0 60 84
99 123 57z"/>
<path d="M2540 1868 c0 -13 67 -241 81 -276 13 -34 32 -22 47 29 8 24 24 78
37 119 36 118 39 140 21 140 -10 0 -19 -15 -26 -42 -18 -74 -50 -181 -55 -186
-3 -3 -7 -3 -10 0 -5 5 -49 151 -59 201 -6 26 -36 39 -36 15z"/>
</g>
</svg>
